<?xml version="1.0" encoding="UTF-8" standalone="no" ?>
<!DOCTYPE svg PUBLIC "-//W3C//DTD SVG 1.1//EN" "http://www.w3.org/Graphics/SVG/1.1/DTD/svg11.dtd">
<svg xmlns="http://www.w3.org/2000/svg" xmlns:xlink="http://www.w3.org/1999/xlink" version="1.1" width="31.519999999999982" height="31.519999999999982" viewBox="0 0 31.52 31.52" xml:space="preserve">
<desc>Created with Fabric.js 2.3.6</desc>
<defs>
</defs>
<rect x="-15.759999999999991" y="-15.759999999999991" rx="0" ry="0" width="31.519999999999982" height="31.519999999999982" style="stroke: none; stroke-width: 0; stroke-dasharray: none; stroke-linecap: butt; stroke-linejoin: miter; stroke-miterlimit: 4; fill: rgb(0,0,0); fill-rule: nonzero; opacity: 1;" transform="translate(15.76 15.76)"/>
<linearGradient id="SVGID_5665" gradientUnits="userSpaceOnUse" x1="-64" y1="-60.58971335514272" x2="-57.17942671028544" y2="-60.58971335514272">
<stop offset="0%" style="stop-color:rgb(186,138,73);stop-opacity: 1"/>
<stop offset="100%" style="stop-color:rgb(252,244,165);stop-opacity: 1"/>
</linearGradient>
<g id="icon-2" transform="translate(15.76 15.76) scale(0.09 0.09)" style="">
	<linearGradient id="SVGID_5655" gradientUnits="userSpaceOnUse" x1="21.984000000000005" y1="93.786" x2="70.82900000000001" y2="93.786">
<stop offset="0%" style="stop-color:rgb(186,138,73);stop-opacity: 1"/>
<stop offset="100%" style="stop-color:rgb(252,244,165);stop-opacity: 1"/>
</linearGradient>
<path d="M 66.351 71.093 l -1.625 1.184 l -20.29 14.793 c -0.292 0.299 -0.745 0.371 -1.116 0.181 c -0.006 -0.002 -0.012 -0.007 -0.018 -0.01 c -0.035 -0.02 -0.071 -0.037 -0.105 -0.062 c -0.008 -0.006 -0.02 -0.015 -0.028 -0.021 l -10.143 -7.87 l -11.042 36.191 l 47.845 -33.743 L 66.351 71.093 z" style="stroke: none; stroke-width: 1; stroke-dasharray: none; stroke-linecap: butt; stroke-linejoin: miter; stroke-miterlimit: 4; fill: url(#SVGID_5655); fill-rule: nonzero; opacity: 1;" transform="translate(-18.0935 29.286) translate(-45.90650000000001, -93.286) " stroke-linecap="round" />
	<linearGradient id="SVGID_5656" gradientUnits="userSpaceOnUse" x1="6.606999999999999" y1="60.727" x2="63.536" y2="60.727">
<stop offset="0%" style="stop-color:rgb(186,138,73);stop-opacity: 1"/>
<stop offset="100%" style="stop-color:rgb(252,244,165);stop-opacity: 1"/>
</linearGradient>
<path d="M 62.536 71.506 L 60.9 70.323 L 40.432 55.508 c -0.012 -0.009 -0.022 -0.021 -0.034 -0.031 c -0.026 -0.021 -0.051 -0.043 -0.075 -0.066 c -0.022 -0.021 -0.043 -0.043 -0.063 -0.067 c -0.02 -0.023 -0.037 -0.048 -0.054 -0.072 c -0.018 -0.027 -0.035 -0.054 -0.05 -0.082 c -0.014 -0.025 -0.026 -0.052 -0.038 -0.079 c -0.012 -0.028 -0.024 -0.059 -0.033 -0.088 c -0.009 -0.028 -0.017 -0.058 -0.023 -0.087 c -0.006 -0.031 -0.012 -0.061 -0.016 -0.091 c -0.004 -0.031 -0.005 -0.061 -0.005 -0.091 c -0.001 -0.033 0 -0.064 0.002 -0.096 c 0.002 -0.029 0.006 -0.058 0.012 -0.087 c 0.006 -0.034 0.014 -0.068 0.024 -0.103 c 0.004 -0.014 0.005 -0.029 0.009 -0.043 l 4.106 -12.075 L 6.607 43.028 l 46.878 35.076 L 62.536 71.506 z" style="stroke: none; stroke-width: 1; stroke-dasharray: none; stroke-linecap: butt; stroke-linejoin: miter; stroke-miterlimit: 4; fill: url(#SVGID_5656); fill-rule: nonzero; opacity: 1;" transform="translate(-29.4285 -3.773) translate(-34.5715, -60.227) " stroke-linecap="round" />
	<linearGradient id="SVGID_5657" gradientUnits="userSpaceOnUse" x1="42.125" y1="32.9715" x2="70.251" y2="32.9715">
<stop offset="0%" style="stop-color:rgb(186,138,73);stop-opacity: 1"/>
<stop offset="100%" style="stop-color:rgb(252,244,165);stop-opacity: 1"/>
</linearGradient>
<path d="M 51.858 61.079 L 69.251 3.864 h -10.24 c 0 1 -0.012 0.544 -0.047 0.646 L 42.125 54.079 L 51.858 61.079 z" style="stroke: none; stroke-width: 1; stroke-dasharray: none; stroke-linecap: butt; stroke-linejoin: miter; stroke-miterlimit: 4; fill: url(#SVGID_5657); fill-rule: nonzero; opacity: 1;" transform="translate(-8.312 -31.5285) translate(-55.688, -32.4715) " stroke-linecap="round" />
	<linearGradient id="SVGID_5658" gradientUnits="userSpaceOnUse" x1="-26.0895" y1="0.5" x2="27.0895" y2="0.5">
<stop offset="0%" style="stop-color:rgb(186,138,73);stop-opacity: 1"/>
<stop offset="100%" style="stop-color:rgb(252,244,165);stop-opacity: 1"/>
</linearGradient>
<polygon points="26.0895,13.515 -22.6305,-20.602 -26.0895,-9.958 16.3685,20.602 " style="stroke: none; stroke-width: 1; stroke-dasharray: none; stroke-linecap: butt; stroke-linejoin: miter; stroke-miterlimit: 4; fill: url(#SVGID_5658); fill-rule: nonzero; opacity: 1;" transform="translate(-36.6305 0.612) "/>
	<linearGradient id="SVGID_5659" gradientUnits="userSpaceOnUse" x1="-14.208000000000006" y1="0.5" x2="15.208000000000006" y2="0.5">
<stop offset="0%" style="stop-color:rgb(186,138,73);stop-opacity: 1"/>
<stop offset="100%" style="stop-color:rgb(252,244,165);stop-opacity: 1"/>
</linearGradient>
<polygon points="-14.208,-28.109 5.153,28.129 14.208,21.55 -2.178,-28.129 " style="stroke: none; stroke-width: 1; stroke-dasharray: none; stroke-linecap: butt; stroke-linejoin: miter; stroke-miterlimit: 4; fill: url(#SVGID_5659); fill-rule: nonzero; opacity: 1;" transform="translate(28.578 31.419) "/>
	<linearGradient id="SVGID_5660" gradientUnits="userSpaceOnUse" x1="-25.619499999999995" y1="0.5" x2="26.619499999999995" y2="0.5">
<stop offset="0%" style="stop-color:rgb(186,138,73);stop-opacity: 1"/>
<stop offset="100%" style="stop-color:rgb(252,244,165);stop-opacity: 1"/>
</linearGradient>
<polygon points="21.8825,-21.1845 -25.6195,14.6055 -16.5635,21.1845 25.6195,-9.7515 " style="stroke: none; stroke-width: 1; stroke-dasharray: none; stroke-linecap: butt; stroke-linejoin: miter; stroke-miterlimit: 4; fill: url(#SVGID_5660); fill-rule: nonzero; opacity: 1;" transform="translate(-16.0405 38.9545) "/>
	<linearGradient id="SVGID_5661" gradientUnits="userSpaceOnUse" x1="64.632" y1="95.77550000000001" x2="96.64" y2="95.77550000000001">
<stop offset="0%" style="stop-color:rgb(186,138,73);stop-opacity: 1"/>
<stop offset="100%" style="stop-color:rgb(252,244,165);stop-opacity: 1"/>
</linearGradient>
<path d="M 67.191 67.328 l 0.689 1.918 c 0 0.001 0 0.001 0 0.002 l 7.74 23.862 c 0.199 0.384 0.086 0.855 -0.238 1.147 c -0.015 0.014 -0.044 0.026 -0.059 0.039 c -0.01 0.008 -0.026 0.019 -0.036 0.026 c -0.009 0.006 -0.022 0.014 -0.032 0.019 l -10.623 7.215 l 31.008 21.685 L 78.363 67.31 L 67.191 67.328 z" style="stroke: none; stroke-width: 1; stroke-dasharray: none; stroke-linecap: butt; stroke-linejoin: miter; stroke-miterlimit: 4; fill: url(#SVGID_5661); fill-rule: nonzero; opacity: 1;" transform="translate(16.136 31.2755) translate(-80.136, -95.27550000000001) " stroke-linecap="round" />
	<linearGradient id="SVGID_5662" gradientUnits="userSpaceOnUse" x1="-29.734" y1="0.5" x2="30.734" y2="0.5">
<stop offset="0%" style="stop-color:rgb(186,138,73);stop-opacity: 1"/>
<stop offset="100%" style="stop-color:rgb(252,244,165);stop-opacity: 1"/>
</linearGradient>
<polygon points="-29.734,5.84 29.734,4.806 26.276,-5.84 -26.036,-5.608 " style="stroke: none; stroke-width: 1; stroke-dasharray: none; stroke-linecap: butt; stroke-linejoin: miter; stroke-miterlimit: 4; fill: url(#SVGID_5662); fill-rule: nonzero; opacity: 1;" transform="translate(32.984 -15.11) "/>
	<linearGradient id="SVGID_5663" gradientUnits="userSpaceOnUse" x1="63.79899999999999" y1="67.07300000000001" x2="126.78399999999999" y2="67.07300000000001">
<stop offset="0%" style="stop-color:rgb(186,138,73);stop-opacity: 1"/>
<stop offset="100%" style="stop-color:rgb(252,244,165);stop-opacity: 1"/>
</linearGradient>
<path d="M 63.799 65.421 l 2.012 -0.003 h 0.001 l 25.109 -0.041 c 0.429 -0.073 0.853 0.152 1.03 0.553 c 0.008 0.018 0.016 0.033 0.022 0.052 c 0.004 0.013 0.012 0.022 0.016 0.035 c 0.004 0.01 0.008 0.023 0.011 0.033 l 3.578 12.33 l 30.206 -22.789 L 67.24 54.766 L 63.799 65.421 z" style="stroke: none; stroke-width: 1; stroke-dasharray: none; stroke-linecap: butt; stroke-linejoin: miter; stroke-miterlimit: 4; fill: url(#SVGID_5663); fill-rule: nonzero; opacity: 1;" transform="translate(30.7915 2.573) translate(-94.7915, -66.57300000000001) " stroke-linecap="round" />
	<linearGradient id="SVGID_5664" gradientUnits="userSpaceOnUse" x1="51.885000000000005" y1="37.4445" x2="84.09900000000002" y2="37.4445">
<stop offset="0%" style="stop-color:rgb(186,138,73);stop-opacity: 1"/>
<stop offset="100%" style="stop-color:rgb(252,244,165);stop-opacity: 1"/>
</linearGradient>
<path d="M 60.955 68.002 l 0.619 -1.916 l 7.718 -23.891 c 0.063 -0.43 0.41 -0.763 0.845 -0.808 c 0.019 -0.002 0.036 -0.262 0.056 -0.262 c 0.013 -0.001 0.025 -0.262 0.039 -0.262 c 0.011 0 0.023 0 0.034 0 l 12.833 0.663 L 70.76 5.887 L 51.885 61.372 L 60.955 68.002 z" style="stroke: none; stroke-width: 1; stroke-dasharray: none; stroke-linecap: butt; stroke-linejoin: miter; stroke-miterlimit: 4; fill: url(#SVGID_5664); fill-rule: nonzero; opacity: 1;" transform="translate(3.492 -27.0555) translate(-67.492, -36.9445) " stroke-linecap="round" />
</g>
</svg>