<?xml version="1.0" encoding="UTF-8" standalone="no" ?>
<!DOCTYPE svg PUBLIC "-//W3C//DTD SVG 1.1//EN" "http://www.w3.org/Graphics/SVG/1.1/DTD/svg11.dtd">
<svg xmlns="http://www.w3.org/2000/svg" xmlns:xlink="http://www.w3.org/1999/xlink" version="1.1" width="74.7623381034216" height="31.519999999999982" viewBox="0 0 74.762338 31.52" xml:space="preserve">
<desc>Created with Fabric.js 2.3.6</desc>
<defs>
</defs>
<path id="icon-1" d="M 188.8 3 l 0.2 0.1 c 0 0.1 -0.4 0.1 -0.6 0.1 c -0.2 0 -0.2 -0.1 -0.4 -0.1 c 0.4 0 0.6 0 0.8 -0.1 h 0.836 c 0.182 0.1 0.182 0.1 0.364 0.1 c 0 0 -0.182 0.1 -0.545 -0.1 H 188 h 0.8 z m 49.201 28.3 H 238 v -0.1 v -0.2 l 0.072 0.036 c 0.03 -0.024 0.07 -0.036 0.128 -0.036 c 0 0 0.2 0.291 0.2 0.728 v 0.727 c -0.2 0.582 -0.4 0.728 -0.4 0.291 v -1.31 l 0.001 -0.137 z m 0.023 -0.187 a 0.242 0.242 0 0 1 0.004 -0.013 H 238 a 0.355 0.355 0 0 1 0.024 0.013 z m -62.142 23.154 l 0.15 0.05 h 0.915 c 0.305 -0.111 0.458 0 0.61 0 c 0.306 0.113 0.458 0.113 0.153 0.225 c -0.458 0.112 -0.305 0.112 0 0.224 c 0.305 0.113 0.61 0.113 0.916 0.113 c 0.305 0 0.61 -0.113 0.916 -0.113 c 0.458 0 0.458 0 0.61 0.113 c -0.305 0 -0.763 0.112 -1.068 0.112 h -1.374 c -0.458 0 -0.916 -0.112 -1.068 -0.225 c -0.305 0.113 -0.305 0.225 -0.916 0.225 c -1.832 -0.337 -2.137 -0.225 -3.663 0 h 1.22 c 0.153 0 0.306 0.112 0.306 0.112 v 0.112 c -0.458 0.112 -0.916 0.224 -1.374 0.224 c -1.068 0.112 -1.984 0.112 -2.9 0 c -0.61 -0.112 -1.373 -0.112 -1.984 -0.224 c -0.305 -0.224 -1.526 -0.224 -1.679 -0.449 h -1.984 c -0.458 0 -0.916 -0.112 -1.526 -0.112 c 0.152 -0.112 0.305 -0.112 0.61 -0.224 c 0.61 -0.112 1.069 -0.224 1.069 -0.449 c 0.152 -0.112 0.458 -0.224 0.61 -0.224 c 0.23 -0.056 0.344 -0.084 0.325 -0.112 h -0.172 l 0.17 -0.001 c -0.021 -0.028 -0.174 -0.056 -0.475 -0.111 c -0.153 0 -0.458 -0.112 -0.458 -0.112 h -1.374 c 0.61 0.112 0.61 0.112 0.305 0.224 c -0.152 0 -0.305 0.112 -0.458 0.112 h -0.763 c -0.152 0 -0.458 -0.112 -0.61 -0.112 c -0.153 0 -0.306 -0.112 -0.458 -0.112 c -0.153 0 -0.61 0 -0.458 -0.112 h -4.274 c 0.305 0 0.61 0 0.763 0.112 c 0 0.112 0.458 0.112 0.61 0.112 c 0.306 0 0.611 0 0.764 0.112 h -0.702 c -0.11 -0.064 -0.479 -0.112 -0.977 -0.112 c -0.458 0 -0.916 0.112 -1.526 0 c -0.306 0 -0.306 0.112 -0.153 0.112 c 0.33 0.081 0.74 0.162 1 0.243 c -0.04 0.078 -0.002 0.154 0.068 0.206 c 0 0.112 0.458 0.112 0.764 0.112 c 0.305 0 0.458 0 0.305 -0.112 H 158.02 c 0.763 0 0.915 0 0.763 -0.225 h -0.038 H 159.089 v 0.225 c 0 0.112 0.153 0.112 0.458 0.112 c 0.61 0.112 1.068 0 1.679 0 c 0.305 0 0.61 0 0.763 0.112 c 0.153 0 0 0.112 0.458 0.224 c -0.153 0.112 -0.153 0.225 -0.305 0.337 c 0.61 0.112 1.22 0.112 1.831 0.224 c 0.153 0.112 0.306 0.224 0.153 0.336 c -0.153 0.113 -0.458 0.113 -0.61 0.113 c -0.153 0 -0.459 0 -0.459 -0.113 v -0.112 c -0.152 -0.112 -0.763 -0.224 -1.373 -0.112 c -0.153 0 -0.153 0.112 0 0.112 c 0 0 0 0.112 -0.153 0.112 c -0.458 0 -0.916 0.113 -1.374 0.113 c -0.305 0 -0.457 -0.113 -0.457 -0.113 l 0.152 -0.112 s -0.152 -0.112 -0.305 -0.112 h -2.594 c -0.306 0 -0.459 0.112 -0.764 0.112 c -0.153 0 -0.458 0.112 -0.763 0.112 c -1.221 0 -2.442 -0.112 -3.51 -0.336 c -0.306 -0.112 -0.764 -0.112 -1.222 -0.112 c -0.61 0.112 -1.068 0.112 -1.22 0.224 c -0.153 0 -0.306 0.112 -0.306 0.112 h -0.458 c -0.916 0 -1.832 -0.112 -2.747 0 h -1.527 c -0.458 0 -0.763 0 -1.068 -0.112 c -0.305 -0.112 -0.916 -0.224 -1.832 -0.112 h -0.915 c -0.153 0 -0.153 -0.112 -0.153 -0.112 c 0 -0.112 0.153 -0.112 0.305 -0.112 c 0.153 -0.112 0.305 -0.112 0.153 -0.112 H 139.705 v -0.337 c 0 -0.112 -0.153 -0.112 -0.458 -0.112 c -0.763 0 -1.069 0.224 -0.763 0.336 c 0.152 0 0.458 0.113 0.61 0.113 h 0.916 c 0.153 0.112 -0.458 0.224 -0.458 0.448 h -0.763 c -0.153 -0.112 -0.305 -0.112 -0.458 -0.112 h -0.305 l -0.306 0.224 h 0.153 c -0.61 -0.112 -1.068 -0.112 -1.679 -0.112 c -0.305 0 -0.61 0 -0.61 -0.112 s 0.152 -0.224 0.458 -0.224 h 0.305 v -0.337 c -0.153 -0.112 -0.305 -0.112 -0.763 -0.112 c -1.069 0.112 -2.137 0.112 -3.053 0.224 c -0.153 0 -0.153 0.113 -0.153 0.113 h 0.611 c 0.916 0 1.679 -0.113 2.595 -0.113 h 0.61 c -0.152 0.113 -0.152 0.225 0 0.337 c -0.61 -0.112 -1.22 -0.224 -2.137 -0.112 h -3.815 c 0.61 0 0.763 0.112 1.068 0.112 c 0.305 0 0.153 0.112 0 0.112 c -0.305 0.112 -0.61 0.112 -0.916 0.112 c -0.458 -0.112 -1.22 -0.112 -1.984 -0.112 h -0.153 c -0.305 0.112 -0.61 0.112 -0.916 0.112 a 7.832 7.832 0 0 0 -2.289 0 c -0.305 0.112 -0.458 0.112 -0.916 0.112 c -0.305 0 -0.763 0 -1.068 -0.112 c -0.305 -0.112 -0.763 -0.112 -1.069 -0.224 h -0.458 c -0.152 0 -0.152 0.112 0 0.112 c 0.153 0 0.153 0.112 0.153 0.112 h -0.153 a 25.283 25.283 0 0 1 -4.12 0 c -0.459 -0.112 -0.916 -0.112 -1.374 -0.224 h -0.458 v 0.112 c 0 0.112 -0.153 0.224 -0.61 0.224 c -1.222 0.112 -2.29 0.112 -3.511 0.112 H 107.347 c -0.916 0 -1.832 -0.112 -2.748 -0.112 c -0.305 0 -0.61 -0.112 -0.916 -0.112 c -0.457 -0.112 -0.61 -0.112 -0.915 0 c 0 0.112 -0.153 0.112 -0.306 0.112 c -0.763 0 -1.526 0.112 -2.442 0.112 h -1.526 c -0.458 -0.112 -0.916 -0.112 -1.374 -0.224 c -0.458 0 -0.305 -0.112 -0.152 -0.224 c 0.305 -0.112 0.305 -0.112 0.915 -0.112 h 4.58 c 0.61 0 1.068 0 1.373 -0.112 c 0.61 0 0.61 0 0.458 -0.113 c -0.153 0 -0.305 -0.112 -0.153 -0.112 h 1.374 l 0.153 0.112 c -0.153 0 -0.153 0.113 -0.306 0.113 c -0.152 0 -0.152 0.112 0 0.112 h 0.458 c 1.221 -0.112 2.29 0 3.51 0 c 0.306 0 0.459 0.112 0.611 0.112 h 0.153 c 0.916 -0.112 1.679 -0.224 2.442 0 c 0.305 0.112 0.916 0.112 1.069 0 c 0.152 -0.112 0.457 -0.224 0.61 -0.337 h 0.916 c 0.305 0 0.61 0.113 0.916 0.225 c 0.763 -0.112 1.679 -0.112 2.747 -0.112 c 0.305 0 0.61 0 0.763 -0.113 c 0.153 -0.112 0.306 -0.112 0.458 -0.224 c 0 0 0.305 -0.112 0.458 -0.112 c 0.458 0 0.916 0.112 1.374 0.112 c 0.305 0 0.458 -0.112 0.61 -0.112 h 1.069 c 0.458 0.112 0.763 0.112 1.068 0 c 0.305 0 0.61 -0.112 0.916 -0.224 c 0.458 -0.112 0.458 -0.225 0.458 -0.337 c 0 -0.112 0 -0.112 0.152 -0.112 c -0.457 0 -1.068 -0.112 -1.526 -0.112 c -0.458 0 -0.916 0.112 -1.374 0 c 0 0 0 -0.112 0.153 -0.112 h -20.147 h -4.274 c -1.221 0.112 -1.069 0.112 -0.916 0.336 c 0.153 0.112 0 0.112 -0.305 0.225 c -0.153 0 -0.153 0.112 -0.305 0.224 h -1.68 c -0.915 0 -0.915 0 -1.526 0.112 c 0.153 0.112 0.458 0.336 0.763 0.449 c 0.306 -0.113 0.61 -0.113 0.916 -0.113 c 0.305 -0.112 0.61 -0.112 0.916 -0.112 h 0.458 c 0.305 0 0.458 0.112 0.458 0.112 c -0.153 0.113 -0.153 0.113 -0.305 0.113 c -0.611 0 -1.222 0 -1.832 0.112 c -0.305 0.112 -0.458 0.112 -0.458 0.224 v 0.336 c 0.305 0.113 0.61 0.113 1.068 0.225 h -1.373 c -0.763 0.112 -1.221 0 -1.68 -0.112 c 0.153 -0.113 0.917 -0.113 0.917 -0.337 c -0.764 0 -1.527 0 -2.137 0.112 a 6.828 6.828 0 0 1 -2.137 0 h -3.358 c -0.916 0.112 -0.916 0.337 -1.374 0.449 h -1.526 c -0.763 0 -1.526 0 -2.137 -0.112 c -0.305 -0.112 -0.763 0 -0.763 0.112 s -0.153 0.112 -0.458 0.112 c -0.763 0 -1.221 -0.112 -2.137 -0.112 h -2.137 c -0.915 -0.224 -0.915 -0.224 -2.136 -0.337 c -0.153 0 -0.153 0.113 -0.306 0.113 c -0.152 0.112 -0.152 0.112 -0.305 0.112 c -0.61 0.112 -1.374 0.112 -2.137 0.112 c -0.305 -0.112 -0.763 -0.112 -0.763 -0.224 c -0.153 0 -0.153 -0.113 -0.153 -0.113 a 6.828 6.828 0 0 0 -2.137 0 c -0.457 0 -1.068 0 -1.526 0.113 c -0.305 0 -0.458 0.112 -0.458 0.112 c 0 0.112 -0.305 0.112 -0.458 0.112 c -1.068 -0.112 -1.984 0 -3.052 0 H 59.42 c -0.916 0 -1.679 -0.112 -2.29 -0.224 c -0.152 0 -0.305 -0.113 -0.61 -0.113 h -0.458 c -0.305 0 -0.763 0 -0.916 0.113 c -0.152 0.112 -0.763 0.112 -1.22 0.112 c -0.306 -0.112 -0.611 -0.112 -0.917 -0.112 h -1.22 c -0.306 0 -0.458 -0.113 -0.764 -0.225 c -0.305 -0.112 -0.61 -0.224 -0.916 -0.224 c -0.457 0 -0.61 -0.112 -0.61 -0.224 l -0.305 -0.225 h -2.748 c -0.458 0 -0.763 0.113 -0.61 0.225 h 0.152 c 0.153 0.112 -0.152 0.224 -0.305 0.224 h -2.289 l 0.458 0.336 c -0.306 0 -0.458 0.113 -0.764 0.225 c -0.152 0 -0.458 0.112 -0.763 0.112 h -1.22 c -0.611 -0.112 -1.375 -0.112 -2.138 -0.112 c -1.22 0 -2.442 0 -3.663 -0.112 l -0.458 -0.337 c -0.458 -0.112 -0.916 -0.112 -1.373 -0.112 c 0.305 0 0.457 -0.112 0.61 -0.112 a 0.609 0.609 0 0 0 0.305 -0.112 c 0 -0.112 -0.152 -0.112 -0.305 -0.225 c -0.153 -0.224 -0.458 -0.336 -1.068 -0.336 c -0.153 0 -0.306 -0.112 -0.458 -0.112 c -0.153 -0.112 -0.61 -0.112 -0.763 0 c -0.458 0.336 -0.61 0.56 -0.61 0.785 c 0 0 0.152 0 0.304 0.112 c -0.61 0.112 -1.068 0.112 -1.679 0.112 v 0.112 c 0 0.112 0 0.225 -0.305 0.225 h -0.916 c -0.152 -0.113 -0.305 -0.113 -0.458 -0.113 c -1.22 -0.112 -1.22 -0.112 -1.068 -0.448 a 4.231 4.231 0 0 0 -1.679 0 v 0.112 c 0.153 0.336 0.153 0.336 -1.068 0.336 h -0.306 v 0.113 c 0 0.112 -0.305 0.224 -0.915 0.224 H 11.036 c -0.916 0.112 -1.985 0.112 -2.9 0 H 4.93 L 1.572 56 l -0.152 -2.691 v -1.57 v -0.337 v -2.243 v -2.018 v -3.925 c 0 -0.897 0 -0.897 0.305 -1.795 c 0 -0.448 -0.153 -0.897 -0.153 -1.233 c -0.152 -0.449 -0.152 -1.01 -0.152 -1.57 c -0.153 -1.234 0 -2.467 0.152 -3.589 c 0 -0.448 0.153 -0.673 0.306 -0.673 c 0 0 0.152 -0.224 0.152 -0.448 s 0 -0.56 -0.152 -0.56 l -0.153 0.111 c -0.153 0.112 -0.305 0 -0.305 -0.224 c -0.153 -0.56 -0.153 -1.121 -0.153 -1.794 c 0 -0.337 0.153 -0.561 0.153 -0.785 c 0 -0.337 0.152 -0.673 0 -1.01 v 0.112 h 0.152 c 0.153 0 0.153 -0.112 0.153 -0.224 c 0 -0.56 0 -1.233 -0.153 -1.794 c 0 -0.224 0.153 -0.337 0.153 -0.56 c 0 -0.113 0 -0.113 0 0 l -0.153 0.56 c -0.152 -0.337 -0.305 -0.673 -0.305 -1.234 v -1.121 v -0.897 c -0.153 -0.337 -0.153 -0.897 -0.153 -1.346 v -0.673 c 0 -0.336 0 -0.56 0.153 -0.673 c 0.153 -0.336 0.153 -0.56 0 -1.009 c 0 -0.224 0 -0.336 -0.153 -0.449 c -0.152 -0.336 -0.152 -0.336 0 -0.785 c 0.153 -0.112 0.153 -0.112 0.153 -0.224 c 0 -0.336 0.153 -0.56 0.153 -0.785 v -0.112 c -0.153 -0.785 -0.153 -1.682 -0.306 -2.467 c 0 -0.56 0 -1.01 0.153 -1.57 a 3.747 3.747 0 0 0 0 -2.58 c -0.153 -0.56 -0.153 -1.233 -0.153 -1.906 V 7.33 V 5.649 V 1.162 H 6.61 c 1.526 0 3.052 0.112 4.578 0 h 2.29 c 1.068 0 1.984 0.112 3.052 0 c 0.458 -0.112 1.069 0 1.68 0 h 7.173 c 3.663 -0.112 7.174 0 10.837 0 h 1.068 c 1.069 0.112 2.29 0 3.358 0 c 1.527 -0.112 3.053 -0.112 4.58 -0.112 h 14.958 c 0.762 -0.112 1.678 0 2.441 0 h 2.29 c 0.458 0 0.916 0 1.374 0.112 c 0.61 0.112 1.22 0.112 1.831 0 c 0.763 -0.112 1.68 -0.112 2.595 -0.112 h 2.747 c 1.069 0 1.984 0 2.9 0.112 h 1.374 c 0.916 -0.112 1.679 -0.112 2.442 0 c 0.763 0 1.526 0.112 2.442 0 c 1.374 -0.112 2.9 -0.112 4.427 -0.112 h 0.915 c 0.916 0.112 1.832 0.112 2.748 0.112 h 4.273 c 0.916 0.112 1.832 0.112 2.9 0.112 c 0.764 0 1.374 0.112 1.985 0.112 c 0.915 0 1.984 0.112 2.9 0.112 h 0.915 c 0.916 -0.224 1.985 -0.224 3.053 -0.224 c 3.053 0.112 5.953 0 8.853 0.112 h 1.984 c 1.374 0 2.595 0.112 3.663 0.225 c 0.458 0.112 0.916 0.112 1.221 0 h 0.916 c 0.458 0.112 1.068 0.112 1.679 0.112 c 0.763 0 1.679 -0.112 2.442 -0.112 c 0.458 -0.113 0.458 -0.113 0.305 -0.225 c -0.152 0 -0.305 -0.112 -0.458 -0.112 c 0.458 -0.112 1.069 -0.112 1.68 -0.112 h 1.373 c 0.305 0.112 0.61 0.112 1.221 0.112 c 0.61 -0.112 1.069 -0.112 1.527 -0.112 h 1.678 c 0.764 0 1.68 0.112 2.443 0.112 c 0.305 0 0.457 0.112 0.61 0.112 c 0.458 0.112 0.916 0.112 1.526 0.112 h 1.527 c 0.61 0.113 1.373 0.337 1.984 0.449 c 0.305 0.112 0.916 0.112 1.526 0.112 h 2.442 c 0.764 0.112 1.374 0 2.137 0 c 1.069 0 2.137 -0.112 3.206 0 h 3.052 c 0.916 0 1.527 0.112 1.832 0.224 c 0.305 0.113 0.305 0.225 -0.305 0.225 c -0.764 0.112 -1.374 0.224 -2.137 0.336 c -0.61 0.112 -1.374 0.224 -2.29 0.224 h -2.442 c -0.763 0 -1.374 -0.224 -2.137 -0.112 c -0.763 0 -1.22 0.225 -1.984 0.225 c -0.458 0.112 -0.916 0.112 -1.374 0.112 c -0.61 0.112 -1.068 0.112 -1.526 0.224 h 57.237 c -0.152 -0.112 -0.152 -0.112 -0.152 -0.224 c 0.152 -0.112 -0.153 -0.225 -0.611 -0.337 h 0.458 c 0.305 0 0.305 -0.112 0.305 -0.112 c -0.152 0 -0.152 0 0 0 c -0.305 0 -0.458 0.112 -0.763 0.112 h -2.747 c -0.153 0.112 -0.306 0.225 -0.458 0.225 h -0.458 c -0.153 0 -0.305 -0.113 -0.153 -0.113 c 0.153 0 0.153 -0.112 -0.152 -0.112 h -2.29 c -0.763 -0.112 -1.526 -0.224 -1.984 -0.448 c 0 -0.112 -0.458 -0.112 -0.763 -0.112 H 187.173 c 0.153 -0.113 0.153 -0.113 0.306 -0.113 c 0.458 -0.112 0.61 -0.224 0.458 -0.224 c -0.306 -0.112 -0.916 -0.224 -1.68 -0.336 c -0.152 -0.112 -0.457 -0.112 -0.61 -0.112 c -0.095 0 -0.072 -0.044 -0.04 -0.076 c -0.192 0.018 -0.445 0.038 -0.744 0.065 c -0.63 0.1 -1.261 0.1 -1.734 0 h -1.734 c -0.473 0 -0.788 0.1 -1.26 0.1 c -0.631 0 -0.789 0 -0.946 -0.1 c -0.158 0 -0.158 -0.1 -0.158 -0.1 c -0.118 -0.075 0.116 -0.15 0.439 -0.224 a 12.179 12.179 0 0 1 -1.367 -0.176 c -0.137 0 -0.137 0 0 0 c 0 -0.1 0 -0.1 0.138 -0.1 h 0.276 c 0.69 0 1.517 0.1 2.345 0.1 c 0.138 0 0.138 0.1 0.138 0.1 l -0.24 0.04 c 0.389 0.027 0.748 0.06 1.108 0.06 c 0.158 0 0.473 -0.1 0.473 -0.1 c 0.157 0 0.157 -0.1 0.157 -0.1 c 0.158 -0.1 0.158 -0.1 0.788 -0.1 c 0.473 0 0.946 0 1.261 0.1 c 0.316 0 0.63 0.1 0.946 0.2 c 0.52 0.11 0.611 0.16 0.404 0.198 h 0.513 c 0.306 0 0.61 0.113 0.916 0.113 c 0.458 0 1.068 0.112 1.526 0.112 h 1.069 c 0.305 0 0.763 -0.112 1.068 -0.112 c 0.305 0 0.61 -0.113 0.916 -0.113 h 0.916 c 0.458 0 1.068 0.113 1.526 0.225 c 0.153 0 0.153 0.112 -0.153 0.112 c -0.305 0.112 -0.305 0.112 -0.152 0.224 c 0.152 0.112 0.458 0.112 0.763 0.112 h 0.458 a 52.704 52.704 0 0 1 5.953 0 h 1.679 c 0.915 -0.112 1.678 0 2.289 0.112 c 0.305 0 0.61 0.113 0.763 0.225 c 0.305 0.224 1.069 0.224 1.832 0.224 h 0.458 c -0.61 -0.224 -0.61 -0.224 -0.458 -0.56 c -0.305 0 -0.763 -0.113 -1.221 -0.113 v -0.112 c 0.458 -0.112 0.916 -0.112 1.373 -0.112 h 0.916 c 0.916 0 4.274 0.112 5.342 0.224 h 1.68 c 0.457 -0.112 1.068 -0.112 1.526 -0.224 h 1.373 c 0.61 0 1.221 0.112 1.68 0.112 c 0.305 0 0.61 0 0.762 0.112 c 0.306 0.112 0.764 0.112 1.221 0.112 c 0.306 -0.112 0.611 -0.112 0.916 -0.112 c 0.306 0 0.306 -0.112 0.153 -0.112 s -0.153 -0.112 0 -0.112 c 0.61 -0.112 1.068 -0.224 1.679 -0.224 c 0.763 0 1.374 0.112 1.984 0.112 h 1.526 c 0.458 0 0.611 0 0.764 0.112 c 0.152 0.112 0.61 0.112 0.305 0.224 h -0.153 c 0 0.112 0.153 0.112 0.61 0.112 c 0.306 0 0.611 0 0.611 -0.112 c -0.152 -0.224 0.458 -0.224 1.069 -0.336 c 0.458 -0.112 0.915 -0.112 1.22 0 c 0.306 0.112 0.611 0.112 0.917 0.112 h 3.815 V 3.18 c 0 0.448 0.153 0.785 0.153 1.233 c 0 0.224 0 0.56 -0.153 0.785 c -0.305 0.337 -0.305 0.897 -0.305 1.57 v 0.673 c 0 0.224 -0.153 0.336 -0.153 0.449 c 0 0.448 0 0.672 0.153 0.897 c 0 0 0.153 0 0.153 0.112 c 0 0.56 0.152 1.121 0.152 1.794 c 0 0.112 -0.152 0.337 -0.152 0.449 c -0.153 0.336 -0.458 0.56 -0.61 0.897 c -0.153 0.112 -0.153 0.224 -0.306 0 c 0 -0.224 -0.153 -0.449 -0.305 -0.673 v 2.691 c 0 0.561 0.152 0.673 0.305 0.449 v -0.112 c 0.153 0 0.153 0 0.153 0.224 v 3.14 c 0.152 0.112 0.305 0.337 0.457 0.449 c 0.153 0.224 0.306 0.897 0.153 1.458 c 0 0.336 -0.153 0.56 -0.153 0.785 c 0 0.448 -0.152 0.672 -0.305 0.897 c -0.152 0.112 -0.152 0.448 -0.152 0.673 v 1.121 c 0 0.56 -0.153 1.01 -0.153 1.57 c 0 0.224 0 0.449 0.153 0.449 c 0.152 0 0.152 0 0.305 0.112 c 0.305 0.224 0.458 0.785 0.305 1.57 c -0.153 1.233 -0.305 2.691 -0.458 4.037 c 0 0.673 0 1.346 0.153 1.906 c 0 0.561 0 1.122 0.152 1.57 c 0 0.113 0.153 0.113 0.153 0.113 c 0.153 -0.113 0.153 -0.337 0.305 -0.45 c 0.153 -0.335 0.306 -0.223 -0.305 1.459 c 0 0.56 0 1.01 -0.153 1.57 c -0.152 0.56 -0.152 1.121 -0.305 1.682 c -0.152 0.112 -0.305 0 -0.305 -0.224 a 1.71 1.71 0 0 0 -0.458 -0.449 c 0 -0.054 -0.035 -0.108 -0.072 -0.15 c -0.026 0.575 -0.016 1.169 -0.142 1.73 c 0.009 0.117 0.028 0.227 0.061 0.327 c 0.153 0.336 0.306 0.56 0.458 0.897 c 0.153 0.112 0.153 0.224 0.153 0.448 v 1.122 c 0 0.897 -0.153 1.682 -0.153 2.579 c 0 1.346 -0.152 2.58 -0.305 3.813 v 0.56 c -0.153 0.561 -0.305 1.346 -0.458 1.907 c -0.152 0.785 -0.458 1.57 -0.61 2.467 v -0.112 v 0.112 h -8.243 h 0.306 h -0.458 h -0.153 h 0.305 H 186.41 h -0.152 c -0.153 0 0 0 0 0 h 0.152 h -1.526 h -4.885 H 180.306 c -0.458 0.112 -0.916 0 -1.374 0 h -1.22 c -0.153 0 -0.306 -0.112 -0.306 -0.112 h -1.221 c 0.153 0.112 0.153 0.112 0 0.112 c -0.305 0.112 -0.458 0.112 -0.61 0.112 h -0.459 v -0.112 h -7.173 c 0.65 0.096 0.304 0.191 0.469 0.286 c 0.232 0.03 0.492 0.002 0.752 -0.062 h 0.152 c -0.152 0 -0.457 -0.112 -0.915 -0.112 h -0.458 c -0.153 0 0 0.112 0 0 a 0.99 0.99 0 0 0 0.469 0.174 a 0.556 0.556 0 0 0 0.141 0.05 c 0.153 0.113 0.306 0.113 0.61 0.113 H 170.843 H 167.942 a 14.706 14.706 0 0 0 -1.55 -0.048 c 0.191 0.047 0.372 0.095 0.608 0.142 l -0.125 0.1 h -0.375 c -0.25 0 -0.375 -0.1 -0.625 -0.2 a 0.819 0.819 0 0 0 -0.087 -0.029 c -0.535 0.015 -1.085 0.035 -1.662 0.035 c 0 0 0 0.112 0.153 0.112 c 0.305 0.112 0.61 0.112 0.915 0.112 c 0.458 0.112 0.916 0.224 1.68 0.224 c 0.61 0 1.068 -0.112 1.678 -0.112 c 0.153 0.112 0.153 0.112 0.306 0.112 c 0.457 0.225 0.915 0.225 1.373 0.112 c 0.305 0 0.458 -0.112 0.61 -0.112 c 0.306 0 0.611 -0.112 0.917 -0.112 h 0.457 v 0.112 c -0.152 0.112 -0.152 0.112 -0.305 0.112 c 0 0.113 -0.152 0.113 -0.152 0.113 h 0.763 c 0.305 0.112 0.61 0.112 1.068 0.112 c 0.153 -0.112 0.305 -0.112 0.305 -0.112 c 0 -0.113 -0.305 -0.113 -0.305 -0.113 h -1.068 c 0 -0.112 0 -0.224 -0.153 -0.224 a 7.57 7.57 0 0 0 1.832 -0.224 a 0.368 0.368 0 0 1 -0.033 -0.018 l -0.167 -0.1 h 0.2 c 0.005 -0.106 0.155 -0.106 0.305 -0.106 h 0.318 c -0.156 -0.094 -0.142 -0.094 0.51 -0.094 H 176 c 0 0.089 0 0.178 -0.118 0.267 z m 60.137 -17.553 c 0.15 0.112 0.15 0.335 0.302 0.446 a 4.454 4.454 0 0 0 -0.034 0.246 c 0.104 -0.387 0.187 -0.76 0.187 -1.255 c 0 -0.112 -0.153 -0.225 -0.153 -0.225 h -0.153 c -0.152 0 -0.152 0.225 -0.152 0.449 c 0 0.121 0 0.234 0.003 0.339 z M 158.707 53.98 h -0.076 c -0.152 0 -0.152 0 -0.305 0.113 H 157.868 c 0.153 -0.113 0.305 0 0.305 0 l -0.305 -0.225 h -0.763 z M 163 54 s 0.2 0 0 0 z m -24 -1 c 0 0.1 0 0 0 0 z m 47 -52 c 0.2 0.1 0 0 0 0 z M 1.725 28.861 c 0.153 0.112 0.153 0 0 0 z M 99.41 54.654 h -0.458 h -0.153 c -0.152 0 -0.152 -0.112 -0.152 -0.112 c 0.152 0 0.305 -0.112 0.457 -0.112 h 0.611 c -0.153 0.112 -0.153 0.224 -0.305 0.224 z m 8.242 0 h 0.153 h -0.153 z m 16.637 -0.448 h -1.526 h -0.153 h 0.153 c 0.457 0 0.763 -0.112 1.373 -0.112 c 0.153 0 0.305 0 0.305 0.112 c 0.153 -0.112 0.153 -0.112 -0.152 0 z m 44.569 0 h -0.153 h 0.153 z m -32.206 -0.897 s 0.153 0 0 0 c 0.153 -0.113 0 -0.113 0 0 c 0 -0.113 -0.153 -0.113 0 0 c -0.305 0 -0.153 0 0 0 z m 2.29 -0.449 c -0.153 0 -0.153 0 0 0 c -0.153 0 -0.153 0 0 0 c -0.153 0.112 -0.153 0.112 0 0 c -0.153 0.112 -0.153 0.112 0 0 c -0.153 0.112 -0.153 0.112 0 0 z M 174 55.044 c 0 -0.1 0 0 0 0 z M 181.15 54 c -0.2 0 -0.2 0 0 0 z m 8.37 0.2 c 0 0.1 0 0.1 0.48 0.1 c -0.32 0.1 -0.8 0.1 -0.96 0.2 h -0.16 c -0.8 0.1 -1.76 0.1 -2.72 0.1 l -0.16 -0.1 H 187.6 c 0 -0.1 0 -0.1 -0.16 -0.1 h -0.8 c 1.28 -0.1 2.08 -0.2 2.72 -0.4 h 0.16 c 0.16 0 0.16 0.1 0.16 0.1 l -0.16 0.1 z M 187 54 h 0 z m 50.4 -5 l 0.2 0.133 v 1.6 c 0 0.134 -0.2 0.267 -0.2 0.267 s -0.2 0 -0.2 -0.133 c -0.2 -0.134 -0.2 -0.267 -0.2 -0.534 c 0 -0.4 0 -0.8 0.2 -1.2 c 0 -0.133 0.2 -0.133 0.2 -0.133 z M 184.424 2 h 0.519 c 0.129 0 0 0 0 0 c -0.389 0 -0.778 0.1 -1.166 0.1 h -0.518 c -0.13 0 -0.259 -0.1 -0.259 -0.1 h 1.424 z M 238 8.857 c 0 -0.143 0 -0.286 0.2 -0.571 c 0 -0.572 0 -1 0.2 -1.286 v 0.429 c 0 0.571 0 1 -0.2 1.428 V 9 s -0.2 0 -0.2 -0.143 z M 217 54 c 0.6 0.1 0.4 0.3 1 0.5 h -0.2 c -1 -0.1 -1.8 -0.2 -1.8 -0.4 c 0 -0.1 0.2 -0.1 0.4 -0.1 h 0.6 z M 162.102 2.2 c -0.136 0 -0.136 0 0 0 c 0 -0.1 0.135 -0.1 0.135 -0.2 h 0.678 c 0.407 0 0.814 0.1 1.085 0.1 c -0.407 0 -0.678 0.1 -0.95 0.1 c -0.27 0.1 -0.677 0.1 -0.948 0 z M 99 54 h 0.267 c 0.533 0 1.2 0.1 1.733 0.1 c -0.4 0.1 -0.533 0.1 -0.8 0.1 c -0.4 0 -0.667 -0.1 -1.2 -0.2 c 0 0.1 0 0 0 0 z m 92.8 -52.859 c 0 0.1 -0.2 0.1 -0.2 0.2 c 0.2 0 0.2 -0.1 -0.2 -0.1 c -0.6 0 -1 -0.1 -1.4 -0.1 c 0 0 0 -0.1 0.2 -0.1 c 0.8 -0.1 1.6 0 1.6 0.1 z m -26.917 0.134 c -0.2 0 -0.6 0 -0.8 -0.1 c -0.2 0 0 -0.1 0.2 -0.1 c 0.6 -0.1 1 -0.1 1.6 0 v 0.1 c -0.2 0 -0.6 0.1 -1 0.1 z M 106.8 54.2 c -0.2 0 -0.8 0 -0.8 -0.1 l 0.2 -0.1 h 0.8 c 0.2 0 0.2 0.1 0.4 0.1 c -0.2 0 -0.4 0.1 -0.6 0.1 z m 75.4 0.8 h 0.4 c 0.2 0.1 0 0.1 -0.2 0.1 H 181 h 0.2 c 0.2 -0.1 0.6 -0.1 1 -0.1 z M 174 2.1 h -1.636 c -0.182 0 -0.182 -0.1 -0.364 -0.1 h 0.364 c 0.545 0.1 0.909 0.1 1.636 0.1 z M 186.931 54 c 0.4 0 0.2 0.1 0 0.3 c -0.2 0 -0.4 -0.1 -0.6 -0.1 c -0.4 -0.1 -0.4 -0.1 -0.2 -0.2 h 0.8 z M 172.8 1.1 h -0.4 c -0.2 0 -0.2 -0.1 -0.4 -0.1 h 0.4 c 0.2 0 0.2 0 0.4 0.1 z M 197.818 54 H 196 h 1.091 c 0.364 0.1 0.727 0.1 0.727 0 c 0.182 0.1 0.182 0 0.182 0 h -0.182 z M 221 54 c 0 0.1 0 0.1 0 0 c 0.4 0.1 0.6 0.1 1 0.1 h 0 c -0.2 -0.1 -0.6 -0.1 -1 -0.1 z m -109.4 0.044 c -0.2 0 -0.2 0 -0.4 0.1 c -0.2 0 -0.2 -0.1 -0.2 -0.1 h 0.2 c 0.2 -0.1 0.4 0 0.4 0 z M 238 42.3 v 0.2 s 0.2 -0.1 0 -0.2 c 0.2 -0.1 0.2 -0.2 0.2 -0.3 c -0.2 0 -0.2 0.2 -0.2 0.3 z m 0 -22 v 0.3 c 0 -0.1 0.2 -0.2 0 -0.3 c 0.2 -0.1 0.2 -0.2 0 -0.3 v 0.3 z m -59.911 34.8 c 0.2 0 0.4 0 0.6 -0.1 c 0.2 0 0.2 0.1 0.2 0.1 c 0 0.1 -0.4 0.1 -0.8 0 c 0 0.1 -0.2 0 0 0 z M 173 53 s 0.2 0 0 0 z m -72 1 H 101 z m 81 0 h 0.4 h -1.4 c 0.4 0.1 0.6 0.1 1 0 z m -1 0 s 0.2 0 0 0 c 0.2 0 0.2 0 0 0 c 0.2 0 0 0 0 0 z m 1.15 0 c -0.2 0 -0.2 0 0 0 c -0.2 0 -0.2 0 0 0 z M 197 55 H 197.6 h -0.6 z m -1.8 0 h -0.2 h 0.2 z m -13.05 -1 c -0.2 0 -0.2 0 0 0 c -0.2 0 -0.2 0 0 0 z m -79.15 0.075 h 0.2 c 0 -0.1 0 -0.1 -0.2 0 c 0.2 -0.1 0 0 0 0 z M 186 1 l 0.2 0.1 l -0.2 -0.1 z m 10 54 h 0.2 h -0.2 z m 43 -34 v 0.1 v -0.1 z M 2 29.075 c 0 -0.1 0 -0.1 0 0 z" style="stroke: none; stroke-width: 1; stroke-dasharray: none; stroke-linecap: butt; stroke-linejoin: miter; stroke-miterlimit: 4; fill: rgb(0,0,0); fill-rule: evenodd; opacity: 1;" transform="translate(31.51 16.205895) scale(0.18 0.18) translate(-120, -28.499789321881345) " stroke-linecap="round" />
<g id="icon-2" transform="translate(59.002338 15.76) scale(0.09 0.09)" style="">
	<path d="M 66.351 71.093 l -1.625 1.184 l -20.29 14.793 c -0.292 0.299 -0.745 0.371 -1.116 0.181 c -0.006 -0.002 -0.012 -0.007 -0.018 -0.01 c -0.035 -0.02 -0.071 -0.037 -0.105 -0.062 c -0.008 -0.006 -0.02 -0.015 -0.028 -0.021 l -10.143 -7.87 l -11.042 36.191 l 47.845 -33.743 L 66.351 71.093 z" style="stroke: none; stroke-width: 1; stroke-dasharray: none; stroke-linecap: butt; stroke-linejoin: miter; stroke-miterlimit: 4; fill: rgb(0,0,0); fill-rule: nonzero; opacity: 1;" transform="translate(-18.0935 29.286) translate(-45.90650000000001, -93.286) " stroke-linecap="round" />
	<path d="M 62.536 71.506 L 60.9 70.323 L 40.432 55.508 c -0.012 -0.009 -0.022 -0.021 -0.034 -0.031 c -0.026 -0.021 -0.051 -0.043 -0.075 -0.066 c -0.022 -0.021 -0.043 -0.043 -0.063 -0.067 c -0.02 -0.023 -0.037 -0.048 -0.054 -0.072 c -0.018 -0.027 -0.035 -0.054 -0.05 -0.082 c -0.014 -0.025 -0.026 -0.052 -0.038 -0.079 c -0.012 -0.028 -0.024 -0.059 -0.033 -0.088 c -0.009 -0.028 -0.017 -0.058 -0.023 -0.087 c -0.006 -0.031 -0.012 -0.061 -0.016 -0.091 c -0.004 -0.031 -0.005 -0.061 -0.005 -0.091 c -0.001 -0.033 0 -0.064 0.002 -0.096 c 0.002 -0.029 0.006 -0.058 0.012 -0.087 c 0.006 -0.034 0.014 -0.068 0.024 -0.103 c 0.004 -0.014 0.005 -0.029 0.009 -0.043 l 4.106 -12.075 L 6.607 43.028 l 46.878 35.076 L 62.536 71.506 z" style="stroke: none; stroke-width: 1; stroke-dasharray: none; stroke-linecap: butt; stroke-linejoin: miter; stroke-miterlimit: 4; fill: rgb(0,0,0); fill-rule: nonzero; opacity: 1;" transform="translate(-29.4285 -3.773) translate(-34.5715, -60.227) " stroke-linecap="round" />
	<path d="M 51.858 61.079 L 69.251 3.864 h -10.24 c 0 1 -0.012 0.544 -0.047 0.646 L 42.125 54.079 L 51.858 61.079 z" style="stroke: none; stroke-width: 1; stroke-dasharray: none; stroke-linecap: butt; stroke-linejoin: miter; stroke-miterlimit: 4; fill: rgb(0,0,0); fill-rule: nonzero; opacity: 1;" transform="translate(-8.312 -31.5285) translate(-55.688, -32.4715) " stroke-linecap="round" />
	<polygon points="26.0895,13.515 -22.6305,-20.602 -26.0895,-9.958 16.3685,20.602 " style="stroke: none; stroke-width: 1; stroke-dasharray: none; stroke-linecap: butt; stroke-linejoin: miter; stroke-miterlimit: 4; fill: rgb(0,0,0); fill-rule: nonzero; opacity: 1;" transform="translate(-36.6305 0.612) "/>
	<polygon points="-14.208,-28.109 5.153,28.129 14.208,21.55 -2.178,-28.129 " style="stroke: none; stroke-width: 1; stroke-dasharray: none; stroke-linecap: butt; stroke-linejoin: miter; stroke-miterlimit: 4; fill: rgb(0,0,0); fill-rule: nonzero; opacity: 1;" transform="translate(28.578 31.419) "/>
	<polygon points="21.8825,-21.1845 -25.6195,14.6055 -16.5635,21.1845 25.6195,-9.7515 " style="stroke: none; stroke-width: 1; stroke-dasharray: none; stroke-linecap: butt; stroke-linejoin: miter; stroke-miterlimit: 4; fill: rgb(0,0,0); fill-rule: nonzero; opacity: 1;" transform="translate(-16.0405 38.9545) "/>
	<path d="M 67.191 67.328 l 0.689 1.918 c 0 0.001 0 0.001 0 0.002 l 7.74 23.862 c 0.199 0.384 0.086 0.855 -0.238 1.147 c -0.015 0.014 -0.044 0.026 -0.059 0.039 c -0.01 0.008 -0.026 0.019 -0.036 0.026 c -0.009 0.006 -0.022 0.014 -0.032 0.019 l -10.623 7.215 l 31.008 21.685 L 78.363 67.31 L 67.191 67.328 z" style="stroke: none; stroke-width: 1; stroke-dasharray: none; stroke-linecap: butt; stroke-linejoin: miter; stroke-miterlimit: 4; fill: rgb(0,0,0); fill-rule: nonzero; opacity: 1;" transform="translate(16.136 31.2755) translate(-80.136, -95.27550000000001) " stroke-linecap="round" />
	<polygon points="-29.734,5.84 29.734,4.806 26.276,-5.84 -26.036,-5.608 " style="stroke: none; stroke-width: 1; stroke-dasharray: none; stroke-linecap: butt; stroke-linejoin: miter; stroke-miterlimit: 4; fill: rgb(0,0,0); fill-rule: nonzero; opacity: 1;" transform="translate(32.984 -15.11) "/>
	<path d="M 63.799 65.421 l 2.012 -0.003 h 0.001 l 25.109 -0.041 c 0.429 -0.073 0.853 0.152 1.03 0.553 c 0.008 0.018 0.016 0.033 0.022 0.052 c 0.004 0.013 0.012 0.022 0.016 0.035 c 0.004 0.01 0.008 0.023 0.011 0.033 l 3.578 12.33 l 30.206 -22.789 L 67.24 54.766 L 63.799 65.421 z" style="stroke: none; stroke-width: 1; stroke-dasharray: none; stroke-linecap: butt; stroke-linejoin: miter; stroke-miterlimit: 4; fill: rgb(0,0,0); fill-rule: nonzero; opacity: 1;" transform="translate(30.7915 2.573) translate(-94.7915, -66.57300000000001) " stroke-linecap="round" />
	<path d="M 60.955 68.002 l 0.619 -1.916 l 7.718 -23.891 c 0.063 -0.43 0.41 -0.763 0.845 -0.808 c 0.019 -0.002 0.036 -0.262 0.056 -0.262 c 0.013 -0.001 0.025 -0.262 0.039 -0.262 c 0.011 0 0.023 0 0.034 0 l 12.833 0.663 L 70.76 5.887 L 51.885 61.372 L 60.955 68.002 z" style="stroke: none; stroke-width: 1; stroke-dasharray: none; stroke-linecap: butt; stroke-linejoin: miter; stroke-miterlimit: 4; fill: rgb(0,0,0); fill-rule: nonzero; opacity: 1;" transform="translate(3.492 -27.0555) translate(-67.492, -36.9445) " stroke-linecap="round" />
</g>
	<g id="text-1" transform="translate(31.512338 16.21) scale(0.15 0.15)">
		<text xml:space="preserve" font-family="Sansita" font-size="54.706129424702766" font-style="normal" font-weight="400" style="stroke: none; stroke-width: 0; stroke-dasharray: none; stroke-linecap: butt; stroke-linejoin: miter; stroke-miterlimit: 4; fill: rgb(255,255,255); fill-rule: nonzero; opacity: 1; white-space: pre;" ><tspan x="-116.797586" y="17.185383" >T</tspan><tspan x="-94.094543" y="17.185383" >A</tspan><tspan x="-65.784121" y="17.185383" >K</tspan><tspan x="-37.883995" y="17.185383" >E</tspan><tspan x="-13.129471" y="17.185383" >R</tspan><tspan x="16.685369" y="17.185383" >M</tspan><tspan x="57.441436" y="17.185383" >A</tspan><tspan x="85.751858" y="17.185383" >N</tspan></text>
	</g>
</svg>